<svg width="50" height="50" fill="none" xmlns="http://www.w3.org/2000/svg"><path d="M39.583 39.583l-3.125-3.125m3.125-26.041l-3.125 3.125M10.417 39.583l3.125-3.125m-3.125-26.041l3.125 3.125M4.167 25h4.167m33.332 0h4.167M25 8.334V4.167" stroke="#FF9023" stroke-width="1.5" stroke-linecap="round"/><path d="M21.085 29.925a6.25 6.25 0 118.84-8.839c.928.928 1.576 2.856 2.023 4.888.669 3.038 1.003 4.558-.207 5.768s-2.73.875-5.768.207c-2.032-.447-3.96-1.096-4.887-2.024z" stroke="#0E40B4" stroke-width="1.5"/><path d="M45.834 25c0 11.506-9.328 20.833-20.834 20.833S4.167 36.506 4.167 25C4.167 13.494 13.494 4.167 25 4.167c11.506 0 20.834 9.327 20.834 20.833z" stroke="#0E40B4" stroke-width="1.5"/></svg>