<svg width="50" height="50" fill="none" xmlns="http://www.w3.org/2000/svg"><path d="M7.218 42.782c3.05 3.051 7.961 3.051 17.782 3.051s14.732 0 17.783-3.05c3.05-3.052 3.05-7.962 3.05-17.783 0-9.82 0-14.731-3.05-17.782C39.732 4.167 34.82 4.167 25 4.167s-14.731 0-17.782 3.05C4.167 10.27 4.167 15.18 4.167 25c0 9.821 0 14.731 3.051 17.782z" stroke="#0E40B4" stroke-width="1.5"/><path d="M37.5 17.708h-8.333m8.333 12.5h-8.333m8.333 6.25h-8.333m-8.334-18.75h-4.166m0 0H12.5m4.167 0v-4.166m0 4.166v4.167m3.125 8.333l-3.125 3.125m0 0l-3.125 3.125m3.125-3.125l-3.125-3.125m3.125 3.125l3.125 3.125" stroke="#FF9023" stroke-width="1.5" stroke-linecap="round"/></svg>