<svg width="50" height="50" fill="none" xmlns="http://www.w3.org/2000/svg"><path d="M6.25 21.701c0-6.661 0-9.992.786-11.113.787-1.12 3.919-2.192 10.183-4.336l1.193-.409C21.677 4.726 23.31 4.167 25 4.167c1.69 0 3.323.559 6.588 1.676l1.193.409c6.264 2.144 9.396 3.216 10.183 4.336.786 1.121.786 4.452.786 11.113v3.281c0 11.746-8.831 17.446-14.372 19.867-1.503.656-2.255.984-4.378.984s-2.875-.328-4.378-.984c-5.54-2.42-14.372-8.12-14.372-19.867v-3.28z" stroke="#0E40B4" stroke-width="1.5"/><circle cx="25.001" cy="18.75" stroke="#FF9023" stroke-width="1.5" r="4.167"/><path d="M33.333 31.25c0 2.301 0 4.167-8.334 4.167-8.333 0-8.333-1.866-8.333-4.167 0-2.301 3.731-4.167 8.333-4.167 4.603 0 8.334 1.866 8.334 4.167z" stroke="#FF9023" stroke-width="1.5"/></svg>