<svg width="50" height="50" fill="none" xmlns="http://www.w3.org/2000/svg"><path d="M37.5 30.212c.139-.058.276-.117.412-.18.755-.344 1.601-.473 2.402-.259l.992.266c2.013.538 3.855-1.304 3.316-3.317l-.265-.992c-.215-.8-.086-1.647.259-2.401a13.492 13.492 0 001.218-5.62c0-7.48-6.063-13.542-13.542-13.542-5.63 0-10.457 3.435-12.5 8.324" stroke="#FF9023" stroke-width="1.5"/><path d="M13.58 29.167h.018m7.254 0h.019m7.254 0h.018" stroke="#FF9023" stroke-width="2" stroke-linecap="round" stroke-linejoin="round"/><path d="M20.834 45.833c9.204 0 16.666-7.462 16.666-16.666 0-9.205-7.462-16.667-16.666-16.667-9.205 0-16.667 7.462-16.667 16.667 0 2.574.583 5.011 1.625 7.188.359.748.484 1.595.27 2.396l-.684 2.555c-.538 2.013 1.304 3.855 3.317 3.316l2.554-.684c.801-.214 1.649-.088 2.397.27a16.601 16.601 0 007.188 1.625z" stroke="#0E40B4" stroke-width="1.5"/></svg>