<?xml version="1.0" encoding="utf-8"?><svg viewBox="0 0 50 50" xmlns="http://www.w3.org/2000/svg" xmlns:xlink="http://www.w3.org/1999/xlink"><style>:root>svg{display:none}:root>svg:target{display:block}</style><svg fill="none" viewBox="0 0 25 24" id="arrow" xmlns="http://www.w3.org/2000/svg"><circle cx="10" cy="10" r="10" transform="matrix(-1 0 0 1 22.205 2)" stroke="#E7ECF8"/><path d="m9.205 15 6-6m0 0h-4.5m4.5 0v4.5" stroke="#0E40B4" stroke-linecap="round" stroke-linejoin="round"/></svg><svg fill="none" viewBox="0 0 50 50" id="icon1" xmlns="http://www.w3.org/2000/svg"><path d="m39.583 39.583-3.125-3.125M39.583 10.417l-3.125 3.125M10.417 39.583l3.125-3.125M10.417 10.417l3.125 3.125M4.167 25h4.167M41.666 25h4.167M25 8.334V4.167" stroke="#FF9023" stroke-width="1.5" stroke-linecap="round"/><path d="M21.085 29.925a6.25 6.25 0 1 1 8.84-8.839c.928.928 1.576 2.856 2.023 4.888.669 3.038 1.003 4.558-.207 5.768s-2.73.875-5.768.207c-2.032-.447-3.96-1.096-4.887-2.024Z" stroke="#0E40B4" stroke-width="1.5"/><path d="M45.834 25c0 11.506-9.328 20.833-20.834 20.833S4.167 36.506 4.167 25C4.167 13.494 13.494 4.167 25 4.167c11.506 0 20.834 9.327 20.834 20.833Z" stroke="#0E40B4" stroke-width="1.5"/></svg><svg fill="none" viewBox="0 0 50 50" id="icon2" xmlns="http://www.w3.org/2000/svg"><path d="M7.218 42.782c3.05 3.051 7.961 3.051 17.782 3.051s14.732 0 17.783-3.05c3.05-3.052 3.05-7.962 3.05-17.783 0-9.82 0-14.731-3.05-17.782C39.732 4.167 34.82 4.167 25 4.167c-9.82 0-14.731 0-17.782 3.05C4.167 10.27 4.167 15.18 4.167 25c0 9.821 0 14.731 3.051 17.782Z" stroke="#0E40B4" stroke-width="1.5"/><path d="M37.5 17.708h-8.333m8.333 12.5h-8.333m8.333 6.25h-8.333m-8.334-18.75h-4.166m0 0H12.5m4.167 0v-4.166m0 4.166v4.167m3.125 8.333-3.125 3.125m0 0-3.125 3.125m3.125-3.125-3.125-3.125m3.125 3.125 3.125 3.125" stroke="#FF9023" stroke-width="1.5" stroke-linecap="round"/></svg><svg fill="none" viewBox="0 0 50 50" id="icon3" xmlns="http://www.w3.org/2000/svg"><path d="M36.806 4.167H13.194c-.644 0-.967 0-1.239.025-3.021.277-5.417 2.79-5.681 5.96-.024.286-.024.624-.024 1.3v30.756c0 1.818 2.206 2.59 3.245 1.135a1.753 1.753 0 0 1 2.885 0l.901 1.26a2.849 2.849 0 0 0 4.688 0 2.849 2.849 0 0 1 4.687 0 2.849 2.849 0 0 0 4.688 0 2.849 2.849 0 0 1 4.687 0 2.849 2.849 0 0 0 4.688 0l.901-1.26a1.753 1.753 0 0 1 2.885 0c1.04 1.454 3.245.683 3.245-1.135V11.453c0-.677 0-1.015-.024-1.3-.264-3.17-2.66-5.684-5.681-5.961-.272-.025-.595-.025-1.24-.025Z" stroke="#0E40B4" stroke-width="1.5"/><path d="M15.625 32.292h18.75M29.167 16.667 20.834 25m0-8.333L29.167 25" stroke="#FF9023" stroke-width="1.5" stroke-linecap="round"/></svg><svg fill="none" viewBox="0 0 50 50" id="icon4" xmlns="http://www.w3.org/2000/svg"><path d="M37.5 30.212c.139-.058.276-.117.412-.18.755-.344 1.601-.473 2.402-.259l.992.266c2.013.538 3.855-1.304 3.316-3.317l-.265-.992c-.215-.8-.086-1.647.259-2.401a13.492 13.492 0 0 0 1.218-5.62c0-7.48-6.063-13.542-13.542-13.542-5.63 0-10.457 3.435-12.5 8.324" stroke="#FF9023" stroke-width="1.5"/><path d="M13.58 29.167h.018m7.254 0h.019m7.254 0h.018" stroke="#FF9023" stroke-width="2" stroke-linecap="round" stroke-linejoin="round"/><path d="M20.834 45.833c9.204 0 16.666-7.462 16.666-16.666 0-9.205-7.462-16.667-16.666-16.667-9.205 0-16.667 7.462-16.667 16.667 0 2.574.583 5.011 1.625 7.188.359.748.484 1.595.27 2.396l-.684 2.555c-.538 2.013 1.304 3.855 3.317 3.316l2.554-.684c.801-.214 1.649-.088 2.397.27a16.601 16.601 0 0 0 7.188 1.625Z" stroke="#0E40B4" stroke-width="1.5"/></svg><svg fill="none" viewBox="0 0 50 50" id="icon5" xmlns="http://www.w3.org/2000/svg"><path d="M41.666 45.833v-12.5c0-9.204-7.462-16.666-16.666-16.666-9.205 0-16.667 7.462-16.667 16.666v12.5" stroke="#0E40B4" stroke-width="1.5"/><path d="M29.771 23.958a8.361 8.361 0 0 1 4.603 4.603" stroke="#FF9023" stroke-width="1.5" stroke-linecap="round"/><path d="M4.167 45.833h41.667" stroke="#0E40B4" stroke-width="1.5" stroke-linecap="round"/><path d="M25 4.167v6.25M43.75 12.5l-3.125 3.125M6.25 12.5l3.125 3.125" stroke="#FF9023" stroke-width="1.5" stroke-linecap="round"/><path d="M28.125 36.458a3.125 3.125 0 1 1-6.25 0 3.125 3.125 0 0 1 6.25 0Z" stroke="#0E40B4" stroke-width="1.5"/><path d="M25 39.583v6.25" stroke="#0E40B4" stroke-width="1.5" stroke-linecap="round"/></svg><svg fill="none" viewBox="0 0 50 50" id="icon6" xmlns="http://www.w3.org/2000/svg"><path d="M6.25 21.701c0-6.661 0-9.992.786-11.113.787-1.12 3.919-2.192 10.183-4.336l1.193-.409C21.677 4.726 23.31 4.167 25 4.167c1.69 0 3.323.559 6.588 1.676l1.193.409c6.264 2.144 9.396 3.216 10.183 4.336.786 1.121.786 4.452.786 11.113v3.281c0 11.746-8.831 17.446-14.372 19.867-1.503.656-2.255.984-4.378.984s-2.875-.328-4.378-.984c-5.54-2.42-14.372-8.12-14.372-19.867v-3.28Z" stroke="#0E40B4" stroke-width="1.5"/><circle cx="25.001" cy="18.75" stroke="#FF9023" stroke-width="1.5" r="4.167"/><path d="M33.333 31.25c0 2.301 0 4.167-8.334 4.167-8.333 0-8.333-1.866-8.333-4.167 0-2.301 3.731-4.167 8.333-4.167 4.603 0 8.334 1.866 8.334 4.167Z" stroke="#FF9023" stroke-width="1.5"/></svg><svg fill="none" viewBox="0 0 24 24" id="info" xmlns="http://www.w3.org/2000/svg"><path fill-rule="evenodd" clip-rule="evenodd" d="M22 12c0-5.523-4.477-10-10-10S2 6.477 2 12s4.477 10 10 10 10-4.477 10-10ZM12 6.25a.75.75 0 0 1 .75.75v6a.75.75 0 0 1-1.5 0V7a.75.75 0 0 1 .75-.75ZM12 17a1 1 0 1 0 0-2 1 1 0 0 0 0 2Z" fill="#0E40B4"/></svg><svg fill="none" viewBox="0 0 50 50" id="user" xmlns="http://www.w3.org/2000/svg"><circle cx="25" cy="25" r="25" fill="#D6DAE3"/><path fill-rule="evenodd" clip-rule="evenodd" d="M20.5 19a4.5 4.5 0 1 1 9 0 4.5 4.5 0 0 1-9 0Zm-3.75 14.105a8.25 8.25 0 0 1 16.498 0 .75.75 0 0 1-.437.695A18.682 18.682 0 0 1 25 35.5c-2.786 0-5.433-.608-7.812-1.7a.75.75 0 0 1-.437-.695Z" fill="#1E1E1E"/></svg></svg>